<?xml version="1.0" encoding="UTF-8"?>
<svg id="Layer_1" data-name="Layer 1" xmlns="http://www.w3.org/2000/svg" xmlns:xlink="http://www.w3.org/1999/xlink" version="1.1" viewBox="0 0 53 62.1">
  <defs>
    <style>
      .cls-1 {
        fill: #93278f;
        stroke: red;
        stroke-width: 2px;
      }

      .cls-1, .cls-2 {
        stroke-miterlimit: 10;
      }

      .cls-3 {
        fill: #ffd230;
      }

      .cls-3, .cls-4 {
        stroke-width: 0px;
      }

      .cls-4 {
        fill: url(#linear-gradient);
      }

      .cls-2 {
        fill: none;
        stroke: #f2f2f2;
        stroke-width: 4px;
      }
    </style>
    <linearGradient id="linear-gradient" x1="33" y1="-9.9" x2="33.3" y2="-9.9" gradientTransform="translate(-13.4 21.2) scale(1 -1)" gradientUnits="userSpaceOnUse">
      <stop offset="0" stop-color="#fff"/>
      <stop offset="1" stop-color="#231f20"/>
    </linearGradient>
  </defs>
  <path class="cls-1" d="M4.6,1.1h45.1c1.3,0,2.4,1.1,2.4,2.4v54.1c0,1.9-1.6,3.5-3.5,3.5H4.7c-2.1,0-3.7-1.7-3.7-3.7V4.7c0-2,1.6-3.6,3.6-3.6Z"/>
  <line class="cls-2" x1="27.1" y1="46.1" x2="46" y2="23.2"/>
  <line class="cls-2" x1="15.2" y1="33.5" x2="29.4" y2="46.4"/>
  <g>
    <path class="cls-4" d="M46.7,16.5c-.4.7-1.1,1.2-2,1.8s-2.1.9-3.4,1.1c-.2-1-.7-2.1-1.2-3.2s-1.4-2.1-2.4-3c-1.1-.9-2.4-1.7-4-2.3-1.6-.6-3.5-.9-5.9-.9s-4.1.4-6.2,1.1-3.9,1.8-5.6,3.4c-1.7,1.6-3,3.6-4.1,6.1-1.1,2.5-1.6,5.5-1.6,9s.5,6.6,1.6,9.3,2.6,5,4.4,6.8c1.9,1.8,4,3.2,6.5,4.2,2.5.9,5.1,1.4,8,1.4s6.1-.5,8.4-1.5,4.2-2.3,5.8-3.8c.3,0,.6.3,1,.5.4.3.6.5.7.8-.4.6-1,1.4-1.9,2.3-.9.9-2.1,1.8-3.6,2.6-1.5.8-3.4,1.6-5.6,2.2-2.2.6-4.9.9-8,.9s-6-.5-8.9-1.5-5.4-2.4-7.6-4.4c-2.2-2-4-4.4-5.3-7.4s-2-6.4-2-10.3.7-6.7,2.1-9.8c1.4-3,3.4-5.7,5.8-7.9s5.3-4,8.5-5.3c3.2-1.3,6.6-1.9,10.3-1.9s5.5.4,7.5,1.1,3.7,1.6,4.9,2.7,2.2,2.1,2.7,3.2c.6,1.1.8,2,.8,2.7Z"/>
    <path class="cls-3" d="M46.7,16.5c-.4.7-1.1,1.2-2,1.8s-2.1.9-3.4,1.1c-.2-1-.7-2.1-1.2-3.2s-1.4-2.1-2.4-3c-1.1-.9-2.4-1.7-4-2.3-1.6-.6-3.5-.9-5.9-.9s-4.1.4-6.2,1.1-3.9,1.8-5.6,3.4c-1.7,1.6-3,3.6-4.1,6.1-1.1,2.5-1.6,5.5-1.6,9s.5,6.6,1.6,9.3,2.6,5,4.4,6.8c1.9,1.8,4,3.2,6.5,4.2,2.5.9,5.1,1.4,8,1.4s6.1-.5,8.4-1.5,4.2-2.3,5.8-3.8c.3,0,.6.3,1,.5.4.3.6.5.7.8-.4.6-1,1.4-1.9,2.3-.9.9-2.1,1.8-3.6,2.6-1.5.8-3.4,1.6-5.6,2.2-2.2.6-4.9.9-8,.9s-6-.5-8.9-1.5-5.4-2.4-7.6-4.4c-2.2-2-4-4.4-5.3-7.4s-2-6.4-2-10.3.7-6.7,2.1-9.8c1.4-3,3.4-5.7,5.8-7.9s5.3-4,8.5-5.3c3.2-1.3,6.6-1.9,10.3-1.9s5.5.4,7.5,1.1,3.7,1.6,4.9,2.7,2.2,2.1,2.7,3.2c.6,1.1.8,2,.8,2.7Z"/>
  </g>
</svg>