<?xml version="1.0" encoding="UTF-8" standalone="no"?>
<svg
   xmlns:dc="http://purl.org/dc/elements/1.1/"
   xmlns:cc="http://creativecommons.org/ns#"
   xmlns:rdf="http://www.w3.org/1999/02/22-rdf-syntax-ns#"
   xmlns:svg="http://www.w3.org/2000/svg"
   xmlns="http://www.w3.org/2000/svg"
   id="svg8"
   version="1.1"
   viewBox="0 0 304.8 304.80001"
   height="304.79999mm"
   width="304.79999mm">
  <defs
     id="defs2" />
  <metadata
     id="metadata5">
    <rdf:RDF>
      <cc:Work
         rdf:about="">
        <dc:format>image/svg+xml</dc:format>
        <dc:type
           rdf:resource="http://purl.org/dc/dcmitype/StillImage" />
        <dc:title></dc:title>
      </cc:Work>
    </rdf:RDF>
  </metadata>
  <g
     transform="translate(0,7.8000168)"
     id="layer1">
    <path
       id="path6797"
       transform="matrix(0.26458333,0,0,0.26458333,0,-7.8000168)"
       d="M 557.08008 137.60547 C 544.99562 137.50771 533.12646 141.19072 523.19922 148.16602 C 488.36082 145.63699 474.16898 158.1589 464.125 177.875 C 434.64291 182.47369 419.65516 214.25462 429.81445 241.43164 C 424.65351 247.86201 422.41073 255.40209 421.99805 263.4082 C 414.51685 264.5532 408.77539 271.02938 408.77539 278.8457 C 408.77539 284.64218 411.95143 289.76913 416.7207 292.45703 C 409.04917 317.06116 415.19782 342.81152 433.42188 360.71484 C 431.92023 361.24908 430.4119 361.8698 428.90625 362.57617 C 432.26103 379.95227 442.89683 395.57457 457.85938 405.80078 C 424.89335 426.10458 401.68164 455.00323 401.68164 489.34375 L 401.68164 642.56836 L 290.97266 616.22461 A 4.9318067 4.9318067 0 0 0 285.42383 623.3418 L 304.35742 660.81836 L 178.45703 651.07227 C 179.05012 637.49567 178.49975 624.02328 176.57227 611.40234 C 221.37489 591.52611 228.38097 529.56769 226.51953 487.43359 C 203.51304 488.73564 175.79255 500.53848 153.12695 515.77148 C 151.38254 510.50713 149.1793 505.65671 146.45703 501.36914 C 122.12026 511.0058 102.42192 530.52912 88.556641 555.73438 C 86.234975 552.38552 83.813807 549.14336 81.302734 546.01758 C 62.077307 565.24301 50.616797 599.78421 49.716797 633.52734 C 46.516539 631.59151 43.156686 629.91177 39.638672 628.5 C 28.272078 655.02212 29.772323 690.33693 33.783203 721.16797 C 31.256387 720.0634 28.673882 719.04549 26.044922 718.09766 C 19.108442 762.27168 29.965305 809.88028 56.210938 843.29297 C 52.641658 844.07363 49.159533 844.99641 45.773438 846.05078 C 59.600112 879.71568 91.148286 911.79316 126.68359 924.58984 C 124.94916 926.10876 123.23576 927.66269 121.53906 929.24805 C 141.17202 953.52029 177.98623 967.56806 207.25586 973.04297 C 206.99666 973.36396 206.74816 973.69393 206.5 974.02539 C 229.29126 996.81658 329.85471 1013.742 367.31641 982.18164 C 416.87315 1001.7913 474.58597 1002.1369 524.7832 984.42188 C 547.22694 1003.1505 566.5347 1014.3965 576 1014.3965 C 585.46534 1014.3965 604.77306 1003.1505 627.2168 984.42188 C 677.41395 1002.1369 735.12688 1001.7913 784.68359 982.18164 C 822.14529 1013.742 922.70843 996.81658 945.5 974.02539 C 945.25134 973.69393 945.00342 973.36347 944.74414 973.04297 C 974.01378 967.56806 1010.828 953.52029 1030.4609 929.24805 C 1028.7646 927.66269 1027.0511 926.10876 1025.3164 924.58984 C 1060.8518 911.79316 1092.4 879.71568 1106.2266 846.05078 C 1102.8408 844.99641 1099.3583 844.07344 1095.7891 843.29297 C 1122.0348 809.88028 1132.8911 762.27168 1125.9551 718.09766 C 1123.3257 719.04549 1120.7435 720.0634 1118.2168 721.16797 C 1122.2279 690.33693 1123.728 655.02212 1112.3613 628.5 C 1108.8431 629.91177 1105.4839 631.59151 1102.2832 633.52734 C 1101.3832 599.78421 1089.9227 565.24301 1070.6973 546.01758 C 1068.1859 549.14336 1065.7646 552.38552 1063.4434 555.73438 C 1049.5781 530.52912 1029.8797 511.0058 1005.543 501.36914 C 1002.8204 505.65671 1000.6173 510.50713 998.87305 515.77148 C 976.20745 500.53848 948.48698 488.73564 925.48047 487.43359 C 923.61905 529.56769 930.62514 591.52611 975.42773 611.40234 C 973.50033 624.02328 972.94989 637.49567 973.54297 651.07227 L 847.64258 660.81836 L 866.57617 623.3418 A 4.9318067 4.9318067 0 0 0 861.02734 616.22461 L 750.31836 642.56836 L 750.31836 489.34375 C 750.31836 455.00323 727.10661 426.10458 694.14062 405.80078 C 709.10317 395.57457 719.73904 379.95227 723.09375 362.57617 C 721.5881 361.8698 720.07984 361.24908 718.57812 360.71484 C 736.80218 342.81152 742.95087 317.06116 735.2793 292.45703 C 740.04861 289.76913 743.22461 284.64218 743.22461 278.8457 C 743.22461 271.02938 737.48311 264.5532 730.00195 263.4082 C 729.58923 255.40209 727.34649 247.86201 722.18555 241.43164 C 732.34492 214.25462 717.35705 182.47369 687.875 177.875 C 677.83098 158.1589 663.63723 145.63699 628.79883 148.16602 C 613.67165 137.53699 594.03708 134.55328 576 140.94141 C 569.79977 138.74549 563.41003 137.65668 557.08008 137.60547 z M 556.68164 148.29102 C 559.55048 148.29666 562.4387 148.56227 565.3125 149.09961 L 565.32031 150.9082 C 564.84473 149.97825 564.16777 149.37929 563.30664 149.41406 C 550.95295 149.91115 539.00289 153.67901 528.67578 160.28516 L 528.67383 160.28516 C 529.89877 158.6161 531.11405 156.84076 532.33594 154.98047 C 539.64717 150.60086 548.07512 148.27408 556.68164 148.29102 z M 595.31836 148.29102 C 603.9249 148.27408 612.35275 150.60086 619.66406 154.98047 C 620.88587 156.84076 622.10123 158.6161 623.32617 160.28516 L 623.32422 160.28516 C 612.99711 153.67901 601.04693 149.91115 588.69336 149.41406 C 587.83216 149.37929 587.15527 149.97825 586.67969 150.9082 L 586.68555 149.09961 C 589.55938 148.56227 592.44951 148.29666 595.31836 148.29102 z M 563.59375 160.10352 C 556.12291 166.65004 546.26474 169.32473 536.82812 167.82031 C 544.969 163.16441 554.13794 160.50192 563.59375 160.10352 z M 588.40625 160.10352 C 597.86214 160.50192 607.03089 163.16441 615.17188 167.82031 C 605.73519 169.32473 595.87705 166.65004 588.40625 160.10352 z M 513.38086 162.59766 C 510.92764 165.6086 508.28897 168.46593 505.32812 170.95703 C 498.73208 176.5066 491.67509 178.34833 485.82227 178.8457 C 487.68448 176.02378 489.89935 173.41914 492.40234 171.17773 C 497.99752 166.16711 505.58505 163.6335 513.38086 162.59766 z M 638.61914 162.59766 C 646.41491 163.6335 654.00248 166.16711 659.59766 171.17773 C 662.10069 173.41914 664.31545 176.02378 666.17773 178.8457 C 660.32483 178.34833 653.26799 176.5066 646.67188 170.95703 C 643.71103 168.46593 641.07232 165.6086 638.61914 162.59766 z M 567.58789 170.58398 L 544.83008 236.0293 L 486.57617 237.21484 C 486.46694 233.66323 485.8539 230.32861 484.39844 227.22656 C 497.623 218.42058 508.26889 206.28215 515.27734 192.06445 C 515.9676 192.15373 516.66272 192.19922 517.36133 192.19922 C 525.51067 192.19922 532.20241 185.95907 532.89648 177.99414 C 544.80048 180.50579 557.49704 177.95152 567.58789 170.58398 z M 584.41016 170.58398 C 594.501 177.95152 607.19952 180.50579 619.10352 177.99414 C 619.7977 185.95907 626.48933 192.19922 634.63867 192.19922 C 635.33728 192.19922 636.03244 192.15373 636.72266 192.06445 C 643.73115 206.28215 654.377 218.42058 667.60156 227.22656 C 666.1461 230.32861 665.53268 233.66323 665.42383 237.21484 L 607.16992 236.0293 L 584.41016 170.58398 z M 519.38477 172.08203 C 521.09674 172.84408 522.29492 174.57195 522.29492 176.58008 A 4.9341106 4.9341106 0 0 1 517.36133 181.51367 C 515.3411 181.51367 513.60441 180.30043 512.85156 178.57031 C 515.02128 176.70475 517.18674 174.55182 519.38477 172.08203 z M 632.61523 172.08203 C 634.81314 174.55182 636.97876 176.70475 639.14844 178.57031 C 638.39571 180.30043 636.6589 181.51367 634.63867 181.51367 A 4.9341106 4.9341106 0 0 1 629.70508 176.58008 C 629.70508 174.57195 630.90315 172.84408 632.61523 172.08203 z M 507.92773 182.38281 C 501.66596 197.63654 490.82476 210.53641 477 219.27539 C 476.28692 219.35833 475.50926 219.55612 474.72656 219.81445 C 474.99283 215.85599 475.15001 211.9009 475.13867 208.00781 C 483.49029 205.06186 491.40323 200.97387 498.64844 195.85352 C 500.61954 194.46056 498.42281 190.00377 495.90039 187.92969 C 500.13006 186.787 504.06566 184.9895 507.92773 182.38281 z M 644.07031 182.38281 C 647.93242 184.9895 651.87005 186.787 656.09961 187.92969 C 653.5773 190.00377 651.3805 194.46056 653.35156 195.85352 C 660.5968 200.97387 668.50978 205.06186 676.86133 208.00781 C 676.84999 211.9009 677.00766 215.85599 677.27344 219.81445 C 676.49123 219.55612 675.71308 219.35833 675 219.27539 C 661.17521 210.53641 650.33212 197.63654 644.07031 182.38281 z M 573.39258 186.33008 L 573.39258 270.9043 L 553.50781 243.53516 L 573.39258 186.33008 z M 578.60742 186.33008 L 598.49219 243.53516 L 578.60742 270.9043 L 578.60742 186.33008 z M 462.24805 189.19336 C 465.27764 201.3507 464.75181 214.08988 463.48438 226.70898 C 460.23814 229.49164 457.10581 232.84777 454.26172 236.36914 C 453.29087 235.24316 452.21616 234.18377 451.00195 233.20312 C 451.71598 222.54151 455.83062 212.36438 462.75195 204.16406 C 465.04911 201.44237 456.8831 194.54979 454.58594 197.27148 C 446.18303 207.22716 441.21073 219.56746 440.30273 232.44922 C 439.67068 232.80548 439.06647 233.19166 438.48242 233.58594 C 437.44793 229.36366 437.12155 224.92554 437.46484 220.67773 C 438.05679 213.35553 443.39762 193.63614 462.24805 189.19336 z M 689.75195 189.19336 C 708.60231 193.63614 713.94332 213.35553 714.53516 220.67773 C 714.87845 224.92554 714.55207 229.36366 713.51758 233.58594 C 712.93353 233.19166 712.32935 232.80548 711.69727 232.44922 C 710.78931 219.56746 705.81693 207.22716 697.41406 197.27148 C 695.11687 194.54979 686.95074 201.44237 689.24805 204.16406 C 696.16923 212.36438 700.28398 222.54151 700.99805 233.20312 C 699.78384 234.18377 698.70913 235.24316 697.73828 236.36914 C 694.89419 232.84777 691.76186 229.49164 688.51562 226.70898 C 687.24815 214.08988 686.72228 201.3507 689.75195 189.19336 z M 489.29297 189.24805 C 484.6293 192.26514 479.68509 194.79537 474.53711 196.82812 C 474.25062 194.24989 473.846 191.72879 473.30273 189.30469 C 479.23429 189.77912 484.48212 189.80871 489.29297 189.24805 z M 662.70898 189.24805 C 667.51976 189.80871 672.76571 189.77912 678.69727 189.30469 C 678.154 191.72879 677.74938 194.24989 677.46289 196.82812 C 672.31487 194.79537 667.37258 192.26514 662.70898 189.24805 z M 474.64453 231.66211 C 475.28002 233.26204 475.71919 234.96849 475.8418 236.68555 C 475.86069 236.92555 475.87122 237.1734 475.875 237.43164 L 467.4082 237.5918 C 470.20479 234.78044 472.70783 232.83868 474.64453 231.66211 z M 677.35547 231.66211 C 679.29217 232.83868 681.79532 234.78044 684.5918 237.5918 L 684.59375 237.59375 L 676.125 237.43164 C 676.12878 237.1734 676.13931 236.92555 676.1582 236.68555 C 676.28089 234.96849 676.72024 233.26204 677.35547 231.66211 z M 444.97266 242.12305 C 446.96927 243.85163 448.40378 246.23528 449.38672 248.74414 C 446.96552 246.66987 439.75008 246.62498 439.51953 249.53906 C 438.7143 259.72198 436.90549 269.79216 434.09375 279.61133 C 433.0136 274.52755 432.39685 269.36131 432.65234 264.21484 C 433.44638 248.21366 444.26407 242.58001 444.97266 242.12305 z M 707.02734 242.12305 C 707.73582 242.58001 718.55365 248.21366 719.34766 264.21484 C 719.60315 269.36131 718.98599 274.52755 717.90625 279.61133 C 715.09451 269.79216 713.28573 259.72198 712.48047 249.53906 C 712.24992 246.62498 705.0346 246.66987 702.61328 248.74414 C 703.59626 246.23528 705.03073 243.85163 707.02734 242.12305 z M 460.36719 245.87695 L 473.71289 256 C 473.37939 258.43658 473.05589 261.06383 472.76562 263.88086 C 472.6418 265.08518 472.55197 266.29399 472.5293 267.50781 C 472.51482 265.49345 472.30102 263.46412 471.92383 261.43555 C 471.37912 258.50543 463.9339 259.39391 461.92969 261.81445 C 462.09723 256.40649 461.4834 251.21255 459.9082 246.51758 C 460.04355 246.31022 460.20316 246.09008 460.36719 245.87695 z M 691.63281 245.87695 C 691.79684 246.09008 691.95547 246.31022 692.0918 246.51758 C 690.51604 251.21275 689.9028 256.40649 690.07031 261.81445 C 688.06614 259.39391 680.62076 258.50543 680.07617 261.43555 C 679.69898 263.46412 679.48522 265.49345 679.4707 267.50781 C 679.44803 266.29399 679.3582 265.08518 679.23438 263.88086 C 678.94411 261.06383 678.62061 258.43658 678.28711 256 L 691.63281 245.87695 z M 488.65625 247.80859 L 547.92188 247.80859 L 566.23633 273.01562 L 488.65625 247.80859 z M 604.07812 247.80859 L 663.34375 247.80859 L 585.76367 273.01562 L 604.07812 247.80859 z M 450.12109 250.92383 C 452.24239 258.36316 451.68326 273.73554 443.37695 291.58789 C 442.9058 291.22445 442.42313 290.86632 441.91992 290.52734 C 446.25727 277.72296 449.01543 264.41701 450.12109 250.92383 z M 701.87891 250.92383 C 702.98453 264.41701 705.74269 277.72296 710.08008 290.52734 C 709.57695 290.86632 709.09424 291.22445 708.62305 291.58789 C 700.31674 273.73554 699.75761 258.36316 701.87891 250.92383 z M 486.93555 254.42969 L 564.95117 279.7793 L 533.75195 289.91602 L 486.93555 254.42969 z M 665.06445 254.42969 L 618.24805 289.91602 L 587.04883 279.7793 L 665.06445 254.42969 z M 483.57227 263.48438 L 525.56641 295.31641 L 507.83594 353.92969 C 505.75417 353.35388 503.64045 352.86866 501.49609 352.5 C 497.52026 338.89689 490.88351 329.91704 481.2168 324.47461 C 481.57974 323.15615 481.77539 321.75715 481.77539 320.32031 C 481.77539 314.48543 478.54806 309.28926 473.63086 306.62891 C 479.68797 297.71886 482.96094 286.83819 482.96094 273.30469 C 482.96094 269.93806 483.19885 266.66193 483.57227 263.48438 z M 668.42773 263.48438 C 668.80115 266.66193 669.04102 269.93806 669.04102 273.30469 C 669.04102 286.83819 672.31211 297.71886 678.36914 306.62891 C 673.4519 309.28926 670.22461 314.48543 670.22461 320.32031 C 670.22461 321.75715 670.42026 323.15615 670.7832 324.47461 C 661.11665 329.91704 654.47974 338.89689 650.50391 352.5 C 648.35955 352.86854 646.24583 353.35417 644.16406 353.92969 L 626.43359 295.31641 L 668.42773 263.48438 z M 461.74219 265.51562 C 462.3968 271.54845 461.14481 277.55546 458.28125 282.73438 C 460.03563 277.04752 461.27065 271.20161 461.74219 265.51562 z M 690.25781 265.51562 C 690.72935 271.20161 691.96426 277.04752 693.71875 282.73438 C 690.855 277.55546 689.60308 271.54845 690.25781 265.51562 z M 472.2793 273.38672 C 472.09032 277.68723 471.88235 281.97824 470.94336 286.16211 C 468.37268 297.61558 461.97876 304.82314 457.05664 309.17578 C 456.07495 306.73546 454.94112 304.51279 453.64648 302.49219 C 464.1499 296.09158 470.89826 285.26259 472.2793 273.38672 z M 679.7207 273.38672 C 681.10174 285.26259 687.85006 296.09158 698.35352 302.49219 C 697.05888 304.51279 695.92505 306.73546 694.94336 309.17578 C 690.02124 304.82314 683.62732 297.61558 681.05664 286.16211 C 680.11765 281.97824 679.90968 277.68723 679.7207 273.38672 z M 422.41016 274.33203 C 422.6449 276.28601 422.95175 278.24633 423.31836 280.20703 C 422.89978 279.99775 422.47201 279.79636 422.03906 279.5957 C 421.58737 280.45519 421.15339 281.31787 420.76172 282.19531 C 419.96405 281.32555 419.46289 280.14487 419.46289 278.8457 C 419.46289 276.82788 420.67286 275.09197 422.41016 274.33203 z M 729.58984 274.33203 C 731.32707 275.09235 732.53711 276.82593 732.53711 278.84375 C 732.53711 280.14292 732.03595 281.32555 731.23828 282.19531 C 730.84661 281.31787 730.41172 280.45519 729.96094 279.5957 C 729.52795 279.79636 729.10019 279.99775 728.68164 280.20703 C 729.04825 278.24594 729.35464 276.28602 729.58984 274.33203 z M 566.75391 287.2207 L 519.09961 352.80859 L 535.91016 297.24219 L 566.75391 287.2207 z M 585.24609 287.2207 L 616.08984 297.24219 L 632.90039 352.80859 L 585.24609 287.2207 z M 573.39258 289.70117 L 573.39258 322.50586 L 525.1875 356.04492 L 573.39258 289.70117 z M 578.60742 289.70117 L 626.8125 356.04492 L 578.60742 322.50586 L 578.60742 289.70117 z M 427.39062 294.18164 C 434.58356 297.95934 441.98547 302.99899 445.77539 310.18555 C 449.98064 318.15979 452.24369 334.75303 452.54492 357.9043 C 450.54344 357.80637 448.5421 357.81997 446.5332 357.96484 C 442.56859 354.92596 438.95061 351.39445 435.89062 347.47852 C 419.8294 326.92453 424.23766 303.56017 427.39062 294.18164 z M 724.60938 294.18164 C 727.76234 303.56017 732.1706 326.92453 716.10938 347.47852 C 713.04936 351.39445 709.43141 354.92596 705.4668 357.96484 C 703.4579 357.81997 701.4566 357.80637 699.45508 357.9043 C 699.75668 334.75303 702.0192 318.15979 706.22461 310.18555 C 710.01438 302.99899 717.41648 297.95934 724.60938 294.18164 z M 430.19922 306.20117 C 427.8914 306.12027 425.75607 306.74586 425.57031 308.29297 A 51.589522 51.589522 0 0 0 443.25 353.64062 C 445.95595 355.95633 452.90333 347.8372 450.19727 345.52148 A 40.903574 40.903574 0 0 1 436.17969 309.56836 C 436.41846 307.57922 433.16642 306.30519 430.19922 306.20117 z M 721.80078 306.20117 C 718.83358 306.30519 715.58152 307.57922 715.82031 309.56836 A 40.903575 40.903575 0 0 1 701.80273 345.52148 C 699.09671 347.8372 706.04393 355.95633 708.75 353.64062 A 51.589523 51.589523 0 0 0 726.42969 308.29297 C 726.24391 306.74586 724.1086 306.12027 721.80078 306.20117 z M 466.16211 315.39453 A 4.9217266 4.9217266 0 0 1 471.0918 320.30859 C 468.45229 319.53915 465.64635 318.94551 462.67383 318.50391 C 463.88966 317.50176 465.05561 316.46925 466.16211 315.39453 z M 685.83789 315.39453 C 686.94439 316.46925 688.11034 317.50176 689.32617 318.50391 C 686.35361 318.94522 683.54771 319.53915 680.9082 320.30859 A 4.9217266 4.9217266 0 0 1 685.83789 315.39453 z M 470.83789 331.44531 C 473.99399 332.59482 476.97015 334.12818 479.58203 336.19727 C 484.37013 339.99023 487.54407 345.51476 489.75195 351.4707 C 488.4411 351.48091 487.12553 351.52992 485.80273 351.62305 C 484.48746 356.53181 484.02429 362.33081 484.32227 368.31055 C 484.22249 368.25227 484.12252 368.19533 484.02539 368.13281 C 482.35151 355.09467 477.85984 342.57152 470.83789 331.44531 z M 681.16211 331.44531 C 674.1402 342.57152 669.64834 355.09467 667.97461 368.13281 C 667.87748 368.19521 667.77751 368.25422 667.67773 368.3125 C 667.97571 362.33276 667.51247 356.53181 666.19727 351.62305 C 664.87436 351.52943 663.55894 351.48091 662.24805 351.4707 C 664.45605 345.51476 667.62987 339.99023 672.41797 336.19727 C 675.02985 334.12818 678.00613 332.59482 681.16211 331.44531 z M 576 331.95898 L 621.91406 363.90625 C 616.28442 367.40286 611.07599 371.40445 606.37891 375.56836 C 596.13597 374.23357 585.93332 373.64337 576 373.82812 C 566.06668 373.64337 555.86403 374.23357 545.62109 375.56836 C 540.92401 371.40445 535.71558 367.40286 530.08594 363.90625 L 576 331.95898 z M 462.52539 338.32617 C 467.04884 345.76406 470.29865 353.88347 472.17383 362.34961 C 469.24976 361.20203 466.2765 360.24125 463.26172 359.50781 C 463.1571 351.54625 462.92957 344.54198 462.52539 338.32617 z M 689.47461 338.32617 C 689.06997 344.54198 688.8426 351.54625 688.73828 359.50781 C 685.72339 360.24154 682.75035 361.20203 679.82617 362.34961 C 681.70135 353.88347 684.95108 345.76406 689.47461 338.32617 z M 494.99023 362.39453 C 508.10304 363.57293 520.83875 369.76975 531.50586 377.82031 C 529.73458 378.16044 527.96548 378.52157 526.19727 378.89453 C 519.59715 372.60883 511.57313 368.0161 502.80273 365.50781 C 499.37841 364.52842 496.43895 374.80195 499.86328 375.78125 C 504.65002 377.1503 509.17266 379.28831 513.25391 382.09766 C 510.7601 382.78348 508.2777 383.51418 505.8125 384.28516 C 502.72667 381.49866 499.43221 378.73646 495.96094 376.14062 C 495.10219 371.61955 494.72529 366.97651 494.99023 362.39453 z M 657.00977 362.39453 C 657.27471 366.97651 656.89781 371.61955 656.03906 376.14062 C 652.56772 378.73646 649.2733 381.49866 646.1875 384.28516 C 643.7223 383.51418 641.23986 382.78348 638.74609 382.09766 C 642.82734 379.28831 647.34995 377.1503 652.13672 375.78125 C 655.56101 374.80195 652.62159 364.52842 649.19727 365.50781 C 640.42691 368.0161 632.40273 372.60883 625.80273 378.89453 C 624.03444 378.52157 622.26545 378.16044 620.49414 377.82031 C 631.16129 369.76975 643.89685 363.57293 657.00977 362.39453 z M 450.6543 368.54883 C 451.62675 368.55863 452.59898 368.60299 453.56445 368.68555 C 462.05229 369.41131 477.72257 374.48597 494.14258 388.25977 C 492.00737 389.05301 489.88791 389.8762 487.78906 390.73242 L 462.78906 376.30078 C 459.70459 374.51998 454.36287 383.77389 457.44727 385.55469 L 475.71289 396.09375 C 473.2455 397.27397 470.81781 398.50679 468.43164 399.7832 C 456.71492 393.19002 446.68174 381.9512 441.95703 369.39258 C 444.80525 368.81089 447.73694 368.51941 450.6543 368.54883 z M 701.3457 368.54883 C 704.26307 368.51941 707.19472 368.81089 710.04297 369.39258 C 705.31822 381.9512 695.28505 393.19002 683.56836 399.7832 C 681.18215 398.50679 678.7545 397.27397 676.28711 396.09375 L 694.55273 385.55469 C 697.63713 383.77389 692.29541 374.51998 689.21094 376.30078 L 664.21094 390.73242 C 662.11198 389.8762 659.99267 389.05301 657.85742 388.25977 C 674.27747 374.48597 689.94771 369.41131 698.43555 368.68555 C 699.40105 368.60299 700.37325 368.55863 701.3457 368.54883 z M 576 384.51367 C 646.66341 384.55869 689.02017 411.87428 709.51367 430.45508 C 738.21899 456.48125 739.63281 479.99418 739.63281 489.45898 L 739.63281 645.11133 L 727.21289 648.06641 L 727.21289 508.23047 C 727.21289 432.54732 664.92873 399.0332 576 399.0332 C 487.07138 399.0332 424.78711 432.54732 424.78711 508.23047 L 424.78711 648.06641 L 412.36719 645.11133 L 412.36719 489.45898 C 412.36719 479.99418 413.78108 456.48125 442.48633 430.45508 C 462.97983 411.87428 505.33663 384.55869 576 384.51367 z M 576 409.7207 C 621.30134 409.7207 649.39188 419.64805 651.60547 420.54297 C 705.91535 442.50104 711.82089 477.10428 712.75977 480.04102 C 715.3659 488.19247 716.39506 497.14638 716.52734 505.70312 L 716.52734 650.60938 L 672.60938 661.05859 L 672.60938 610.96484 C 671.81651 600.6312 663.47655 582.86902 639.32812 570.92383 L 672.60938 537.64453 L 672.60938 448.17578 A 5.0404786 5.0404786 0 0 0 667.56836 443.13477 L 576 443.13477 L 484.43164 443.13477 A 5.0404786 5.0404786 0 0 0 479.39062 448.17578 L 479.39062 537.64453 L 512.67188 570.92383 C 488.52345 582.86902 480.18361 600.6312 479.39062 610.96484 L 479.39062 661.05859 L 435.47266 650.60938 L 435.47266 505.70312 C 435.60494 497.14638 436.63425 488.19247 439.24023 480.04102 C 440.17914 477.10428 446.08465 442.50104 500.39453 420.54297 C 502.60809 419.64805 530.69866 409.7207 576 409.7207 z M 490.07812 453.82031 L 548.51367 453.82031 L 548.51172 560.40039 C 538.92544 561.77818 530.57064 563.86468 523.31055 566.44727 L 490.07812 533.21875 L 490.07812 453.82031 z M 559.19922 453.82031 L 576 453.82031 L 592.80078 453.82031 L 592.80273 569.89258 C 617.06738 571.92355 642.57155 579.1668 655.99609 597.7168 C 658.96847 601.82393 661.56199 606.66753 661.92188 611.72461 L 661.92188 791.58398 C 661.61271 809.63728 650.63601 844.05146 620.59961 880.98047 C 608.07777 896.37581 593.14292 910.42119 576 920.41797 C 558.85708 910.42119 543.92227 896.37581 531.40039 880.98047 C 501.36403 844.05146 490.38744 809.63728 490.07812 791.58398 L 490.07812 611.72461 C 490.43794 606.66753 493.03157 601.82393 496.00391 597.7168 C 509.42845 579.1668 534.93259 571.92355 559.19727 569.89258 L 559.19922 453.82031 z M 603.48633 453.82031 L 661.92188 453.82031 L 661.92188 533.21875 L 628.68945 566.44727 C 621.42925 563.86468 613.07261 561.77818 603.48633 560.40039 L 603.48633 453.82031 z M 216.0625 499.56641 C 215.94375 511.9484 215.22466 524.39695 213.08789 536.59375 C 210.6948 550.2533 203.40544 586.3525 174.55273 600.66992 C 172.30441 590.70255 169.07201 581.46276 164.73242 573.37109 C 181.62746 555.67399 197.68763 537.19463 212.85938 517.99414 C 215.06743 515.19971 206.6827 508.57467 204.47461 511.36914 C 190.10312 529.55679 174.92398 547.08778 158.96484 563.91016 C 159.22166 551.10788 158.45226 538.35697 156.06445 526.85742 C 174.17955 514.18916 194.63444 504.17758 216.0625 499.56641 z M 935.9375 499.56641 C 957.36557 504.17758 977.82065 514.18916 995.93555 526.85742 C 993.5442 538.35697 992.77588 551.10788 993.03516 563.91016 C 977.0761 547.08778 961.89678 529.55679 947.52539 511.36914 C 945.3172 508.57467 936.93258 515.19971 939.14062 517.99414 C 954.31237 537.19463 970.37252 555.67399 987.26758 573.37109 C 982.92789 581.46276 979.69559 590.70255 977.44727 600.66992 C 948.59458 586.3525 941.30519 550.2533 938.91211 536.59375 C 936.77535 524.39695 936.05618 511.9484 935.9375 499.56641 z M 141.62109 515.42969 C 146.66023 527.85957 150.43367 551.91898 147.06445 584.41211 C 136.61236 594.21976 127.5852 605.73228 119.97461 618.53906 C 118.59067 614.71267 117.14147 610.90241 115.61719 607.125 L 134.2832 542.95312 C 135.27824 539.53355 125.01857 536.54708 124.02344 539.9668 L 108.96875 591.70703 C 104.84008 582.81943 100.29175 574.21022 95.285156 566.06836 C 105.77767 545.31785 121.41693 525.94369 141.62109 515.42969 z M 1010.3789 515.42969 C 1030.5832 525.94369 1046.2223 545.31785 1056.7148 566.06836 C 1051.7078 574.21022 1047.1602 582.81943 1043.0312 591.70703 L 1027.9766 539.9668 C 1026.9812 536.54708 1016.7213 539.53355 1017.7168 542.95312 L 1036.3828 607.125 C 1034.8593 610.90241 1033.4097 614.71267 1032.0254 618.53906 C 1024.4148 605.73228 1015.3878 594.21976 1004.9355 584.41211 C 1001.5669 551.91898 1005.3399 527.85957 1010.3789 515.42969 z M 80.822266 563.39844 C 89.521978 575.98729 102.10519 598.33161 113.12109 631.10352 C 104.22929 648.96269 97.780868 668.87538 93.728516 689.95898 C 90.916003 683.4619 87.837438 677.2049 84.4375 671.3125 L 84.419922 602.10742 C 84.419922 598.54582 73.734375 598.54582 73.734375 602.10742 L 73.751953 655.31641 C 69.68184 650.08853 65.237062 645.3601 60.394531 641.23633 C 60.360478 640.3577 60.344001 639.45201 60.339844 638.54688 C 60.214658 612.58356 66.334906 584.9442 80.822266 563.39844 z M 1071.1758 563.39844 C 1085.6632 584.9442 1091.7834 612.58356 1091.6582 638.54688 C 1091.6544 639.45201 1091.6364 640.3577 1091.6035 641.23633 C 1086.762 645.35952 1082.3179 650.08744 1078.248 655.31445 L 1078.2656 602.10742 C 1078.2656 598.54582 1067.5801 598.54582 1067.5801 602.10742 L 1067.5605 671.3125 C 1064.1602 677.2049 1061.0843 683.4619 1058.2715 689.95898 C 1054.2193 668.87538 1047.7688 648.96269 1038.877 631.10352 C 1049.8929 598.33161 1062.4761 575.98729 1071.1758 563.39844 z M 159.48633 587.63086 C 163.85596 598.56095 169.05569 619.96181 167.79492 650.24414 L 142.0957 648.25 C 144.70498 641.57433 147.63641 635.01778 150.88477 628.59961 C 152.49315 625.42182 142.93211 620.58182 141.35156 623.77344 C 137.5323 631.48579 134.12328 639.37194 131.14258 647.40234 L 117.98828 646.38672 C 134.77407 607.07298 157.06847 589.67335 159.48633 587.63086 z M 992.51172 587.63086 C 994.92994 589.67335 1017.224 607.07298 1034.0098 646.38672 L 1020.8574 647.40234 C 1017.8766 639.37194 1014.4672 631.48579 1010.6484 623.77344 C 1009.0673 620.58182 999.505 625.42182 1001.1133 628.59961 C 1004.3619 635.01778 1007.294 641.57433 1009.9023 648.25 L 984.20312 650.24414 C 982.94249 619.96181 988.14179 598.56095 992.51172 587.63086 z M 300.49414 629.47461 L 479.39062 672.04297 L 479.39062 719.00781 L 373.43945 695.89844 A 5.0320306 5.0320306 0 0 0 367.76562 702.87305 L 381.04297 732.5332 L 163.65625 660.64258 L 313.53516 672.24805 A 5.0297266 5.0297266 0 0 0 318.42188 664.95898 L 300.49414 629.47461 z M 851.50586 629.47461 L 833.57812 664.95898 A 5.0297266 5.0297266 0 0 0 838.46484 672.24805 L 988.34375 660.64258 L 770.95703 732.5332 L 784.23438 702.87305 A 5.0320306 5.0320306 0 0 0 778.56055 695.89844 L 672.60938 719.00781 L 672.60938 672.04297 L 851.50586 629.47461 z M 576 636.31836 L 555.86719 694.23633 L 494.56055 695.48633 L 543.42383 732.53125 L 525.66797 791.22461 L 576 756.19922 L 626.33203 791.22461 L 608.57617 732.53125 L 657.43945 695.48633 L 596.13281 694.23633 L 576 636.31836 z M 45.71875 643.64453 C 58.454688 651.66446 68.253344 664.33715 75.669922 677.43359 C 83.883202 691.93696 97.101977 729.0084 106.19727 771.7832 C 105.62501 775.14925 105.13487 778.55576 104.70508 781.95117 C 98.181083 772.21447 90.813459 763.05185 82.59375 754.71875 C 78.014837 729.75981 72.043964 705.08474 64.714844 680.79688 C 63.685917 677.38714 53.452354 680.55481 54.505859 683.95703 C 60.508067 703.34049 65.548311 723.00827 69.599609 742.89648 C 62.073304 736.77611 53.958182 731.30945 45.234375 726.65625 C 44.813608 723.47854 44.32729 719.55571 43.763672 714.91797 C 39.606203 680.70844 42.202943 656.23436 45.71875 643.64453 z M 1106.2812 643.64453 C 1109.7968 656.23436 1112.3941 680.70844 1108.2363 714.91797 C 1107.6699 719.55571 1107.1861 723.47854 1106.7656 726.65625 C 1098.0421 731.30945 1089.9267 736.77611 1082.4004 742.89648 C 1086.4516 723.00827 1091.4918 703.34049 1097.4941 683.95703 C 1098.5473 680.55481 1088.3143 677.38714 1087.2852 680.79688 C 1079.9565 705.08474 1073.9832 729.75981 1069.4043 754.71875 C 1061.1848 763.05185 1053.8188 772.21447 1047.2949 781.95117 C 1046.8629 778.55576 1046.3739 775.14925 1045.8027 771.7832 C 1054.8978 729.0084 1068.1187 691.93696 1076.332 677.43359 C 1083.749 664.33715 1093.5467 651.66446 1106.2812 643.64453 z M 114.31445 655.58008 L 126.9043 659.74414 C 119.36186 683.68972 115.45951 708.70472 115.37109 733.93945 C 114.04101 737.84484 112.8247 741.8743 111.71484 745.98242 C 108.8118 733.93299 105.43853 721.67243 101.38281 709.80664 C 103.99392 688.71276 108.68597 670.73099 114.31445 655.58008 z M 1037.6855 655.58008 C 1043.3142 670.73099 1048.006 688.71276 1050.6172 709.80664 C 1046.5611 721.67243 1043.1882 733.93299 1040.2852 745.98242 C 1039.1754 741.8743 1037.9585 737.84484 1036.6289 733.93945 C 1036.5404 708.70472 1032.6384 683.68972 1025.0957 659.74414 L 1037.6855 655.58008 z M 572.39453 662.79688 L 572.39453 710.85352 L 561.0957 695.30273 L 572.39453 662.79688 z M 579.60547 662.79688 L 590.9043 695.30273 L 579.60547 710.85352 L 579.60547 662.79688 z M 136.89648 663.04688 L 165.87891 672.63086 C 164.2567 685.20569 161.88181 696.19122 159.24805 705.56445 C 154.22744 699.47393 148.59752 693.87966 142.3125 688.94141 C 136.9244 693.47529 132.13192 699.3789 127.91406 706.2793 C 129.49077 691.59466 132.49911 677.11361 136.89648 663.04688 z M 1015.1035 663.04688 C 1019.5013 677.11361 1022.5086 691.59466 1024.0859 706.2793 C 1019.8677 699.3789 1015.0759 693.47529 1009.6875 688.94141 C 1003.4024 693.87966 997.77256 699.47393 992.75195 705.56445 C 990.11774 696.19122 987.74349 685.20569 986.12109 672.63086 L 1015.1035 663.04688 z M 176.12305 676.01953 L 389.69141 746.64844 A 5.1433906 5.1433906 0 0 0 395.98242 739.75586 L 382.0918 708.72266 L 401.68164 712.99609 L 401.68164 749.85547 L 321.42969 776.75977 A 5.2679986 5.2679986 0 0 0 318.61523 784.29297 L 337.96484 815.32227 L 310.88281 825.23242 C 298.12499 817.29473 281.48526 810.16109 265.34766 812.08789 C 263.4721 821.04892 262.71788 832.2094 262.65625 842.89258 L 258.58008 844.38477 C 244.85563 825.97291 230.26548 810.3363 194.52344 801.46484 C 192.14609 773.14016 183.93338 741.59554 167.06445 716.11328 C 171.02042 703.69848 174.12241 690.05205 176.12305 676.01953 z M 975.87695 676.01953 C 977.87768 690.05205 980.97955 703.69848 984.93555 716.11328 C 968.06661 741.59554 959.85392 773.14016 957.47656 801.46484 C 921.73452 810.3363 907.14437 825.97291 893.41992 844.38477 L 889.34375 842.89258 C 889.28222 832.2094 888.5279 821.04892 886.65234 812.08789 C 870.51474 810.16109 853.87498 817.29473 841.11719 825.23242 L 814.03516 815.32227 L 833.38477 784.29297 A 5.2679986 5.2679986 0 0 0 830.57031 776.75977 L 750.31836 749.85547 L 750.31836 712.99609 L 769.9082 708.72266 L 756.01758 739.75586 A 5.1433906 5.1433906 0 0 0 762.31055 746.64844 L 975.87695 676.01953 z M 555.26367 699.53906 L 566.5625 715.0918 L 520.85742 700.24023 L 555.26367 699.53906 z M 596.73633 699.53906 L 631.14258 700.24023 L 585.4375 715.0918 L 596.73633 699.53906 z M 142.875 703.58984 C 145.63289 706.3455 180.76443 738.12732 184.24414 808.52344 C 179.58497 822.87873 178.3132 839.51151 178.51758 856.24805 C 173.34452 854.26402 168.1064 852.44631 162.82812 850.80664 L 151.81055 740.42773 C 151.4569 736.88371 140.82407 737.94621 141.17773 741.49023 L 151.77344 847.62891 C 145.69222 846.02023 139.58121 844.64888 133.48242 843.51562 C 128.66591 827.65607 122.18177 811.9202 113.95898 797.12305 C 114.78161 786.58962 116.08806 776.07061 118.10156 765.69531 C 122.34774 743.81536 129.04812 721.07057 142.875 703.58984 z M 1009.125 703.58984 C 1022.9519 721.07057 1029.6523 743.81536 1033.8984 765.69531 C 1035.9119 776.07061 1037.2185 786.58962 1038.041 797.12305 C 1029.8182 811.9202 1023.3341 827.65607 1018.5176 843.51562 C 1012.4188 844.64888 1006.3079 846.02023 1000.2266 847.62891 L 1010.8223 741.49023 C 1011.176 737.94621 1000.5447 736.88371 1000.1895 740.42773 L 989.17188 850.80664 C 983.89354 852.44631 978.65546 854.26402 973.48242 856.24805 C 973.68689 839.51151 972.41515 822.87873 967.75586 808.52344 C 971.23559 738.12732 1006.3671 706.3455 1009.125 703.58984 z M 518.62891 707.09766 L 564.33594 721.94727 L 546.05273 727.88867 L 518.62891 707.09766 z M 633.37109 707.09766 L 605.94727 727.88867 L 587.66406 721.94727 L 633.37109 707.09766 z M 412.36719 715.32617 L 424.78711 718.03516 L 424.78711 742.10742 L 412.36719 746.27148 L 412.36719 715.32617 z M 739.63281 715.32617 L 739.63281 746.27148 L 727.21289 742.10742 L 727.21289 718.03516 L 739.63281 715.32617 z M 435.47266 720.36523 L 468.29102 727.52344 L 435.47266 738.52539 L 435.47266 720.36523 z M 716.52734 720.36523 L 716.52734 738.52539 L 683.70898 727.52344 L 716.52734 720.36523 z M 566.5625 728.80469 L 538.31641 767.68359 L 548.28125 734.74414 L 566.5625 728.80469 z M 585.4375 728.80469 L 603.71875 734.74414 L 613.68359 767.68359 L 585.4375 728.80469 z M 572.39453 733.04102 L 572.39453 752.26367 L 544.14844 771.92188 L 572.39453 733.04102 z M 579.60547 733.04102 L 607.85156 771.92188 L 579.60547 752.26367 L 579.60547 733.04102 z M 35.0625 733.48633 C 39.328261 735.55981 94.94171 759.15836 121.67773 841.60547 C 115.80685 840.80549 109.96994 840.23658 104.20898 839.91797 L 58.330078 766.96875 C 56.43398 763.95378 47.389062 769.64335 49.285156 772.6582 L 91.376953 839.57227 C 83.46204 839.59713 75.731975 840.11557 68.285156 841.13672 C 64.806022 837.13303 61.59831 832.87844 58.681641 828.45703 C 48.802088 813.48065 32.504868 780.71746 35.0625 733.48633 z M 1116.9375 733.48633 C 1119.495 780.71746 1103.1979 813.48065 1093.3184 828.45703 C 1090.4019 832.87844 1087.1941 837.13303 1083.7148 841.13672 C 1076.2682 840.11557 1068.5379 839.59713 1060.623 839.57227 L 1102.7148 772.6582 C 1104.6109 769.64335 1095.5659 763.95378 1093.6699 766.96875 L 1047.791 839.91797 C 1042.0301 840.23658 1036.1932 840.80549 1030.3223 841.60547 C 1057.0584 759.15836 1112.6717 735.55981 1116.9375 733.48633 z M 479.39062 735.07227 L 479.39062 783.95312 L 395.7207 809.41797 A 5.0520946 5.0520946 0 0 0 393.11328 817.21094 L 419.31836 853.31055 L 243.56836 861.27148 L 348.16602 822.9668 A 5.0462386 5.0462386 0 0 0 350.70898 815.5625 L 331.44531 784.67188 L 479.39062 735.07227 z M 672.60938 735.07227 L 820.55469 784.67188 L 801.29102 815.5625 A 5.0462386 5.0462386 0 0 0 803.83398 822.9668 L 908.43164 861.27148 L 732.68164 853.31055 L 758.88672 817.21094 A 5.0520946 5.0520946 0 0 0 756.2793 809.41797 L 672.60938 783.95312 L 672.60938 735.07227 z M 479.49805 795.08984 C 481.85757 836.08884 526.56971 908.43917 576 932.48438 C 625.43032 908.43917 670.14247 836.08884 672.50195 795.08984 L 712.60938 807.29688 C 708.91311 821.59994 702.99572 835.51852 696.57227 848.67773 C 684.87928 872.63223 670.43812 895.42031 653.80469 916.25 C 638.41109 935.52718 619.88298 952.41402 600.16602 967.24023 C 589.13293 975.53656 579.96079 982.46289 576 982.46289 C 572.03924 982.46289 562.86707 975.53656 551.83398 967.24023 C 532.11702 952.41402 513.58891 935.52718 498.19531 916.25 C 481.56188 895.42031 467.12072 872.63223 455.42773 848.67773 C 449.00428 835.51852 443.08693 821.59994 439.39062 807.29688 L 479.49805 795.08984 z M 429.25977 810.38086 C 439.54722 849.05295 465.84949 892.61538 489.84375 922.91797 C 516.91711 957.10905 565.67014 993.4082 576 993.4082 C 586.3299 993.4082 635.08289 957.10905 662.15625 922.91797 C 686.15047 892.61538 712.45289 849.05295 722.74023 810.38086 L 734.55859 813.97852 C 727.65064 839.97108 714.47744 864.87741 699.83789 887.13867 C 678.5697 919.4799 652.36235 949.017 622.88086 974.09961 C 603.26239 990.79095 587.70989 1000.6997 578.28711 1003.2812 C 577.54012 1003.4858 576.76706 1003.6914 576 1003.6914 C 575.23325 1003.6914 574.4598 1003.4857 573.71289 1003.2812 C 564.29011 1000.6999 548.73761 990.79095 529.11914 974.09961 C 499.63773 949.017 473.43042 919.4799 452.16211 887.13867 C 437.5226 864.87741 424.3494 839.97108 417.44141 813.97852 L 429.25977 810.38086 z M 194.2207 812.42188 C 198.95965 813.72915 203.67977 815.15423 208.25781 816.94531 C 229.9374 825.42672 241.56603 839.59457 248.07031 848.24023 L 233.98438 853.4043 C 224.81196 843.62296 215.89883 833.59085 207.25586 823.32422 C 204.96203 820.59956 196.78635 827.48237 199.08008 830.20703 C 206.66897 839.22143 214.4643 848.05661 222.45898 856.70312 L 193.32031 862.42188 C 192.00435 861.81333 190.67748 861.22235 189.33789 860.66211 C 188.98375 844.48093 189.57997 827.90506 194.2207 812.42188 z M 957.7793 812.42188 C 962.42003 827.90506 963.01625 844.48093 962.66211 860.66211 C 961.32253 861.22235 959.99568 861.81333 958.67969 862.42188 L 929.54102 856.70312 C 937.53562 848.05661 945.33101 839.22143 952.91992 830.20703 C 955.21372 827.48237 947.03786 820.59956 944.74414 823.32422 C 936.10108 833.59085 927.18793 843.62296 918.01562 853.4043 L 903.92969 848.24023 C 910.43407 839.59457 922.06263 825.42672 943.74219 816.94531 C 948.32033 815.15423 953.04037 813.72915 957.7793 812.42188 z M 274.50586 822.67383 C 282.56468 823.48378 290.43843 826.31595 297.71484 830.05273 L 273.39453 838.96094 C 273.50599 833.51517 273.83943 828.07269 274.50586 822.67383 z M 877.49414 822.67383 C 878.16047 828.07269 878.49401 833.51517 878.60547 838.96094 L 854.28516 830.05273 C 861.5615 826.31595 869.43524 823.48378 877.49414 822.67383 z M 91.349609 850.37891 C 122.4277 850.13633 165.61825 857.06887 210.91992 883.67383 C 198.28584 885.25972 186.03 888.74824 174.25195 893.83594 L 97.953125 859.90234 C 94.698918 858.45478 90.357215 868.21842 93.611328 869.66602 L 161.67773 899.93945 C 152.95844 904.64958 144.53901 910.22465 136.45898 916.51953 C 104.90868 907.58941 76.711377 881.92783 61.029297 853.21094 C 68.881275 851.66806 79.188633 850.47383 91.349609 850.37891 z M 1060.6504 850.37891 C 1072.8114 850.47383 1083.1188 851.66806 1090.9707 853.21094 C 1075.2886 881.92783 1047.0913 907.58941 1015.541 916.51953 C 1007.461 910.22465 999.04194 904.64958 990.32227 899.93945 L 1058.3887 869.66602 C 1061.6431 868.21842 1057.3013 858.45478 1054.0469 859.90234 L 977.74805 893.83594 C 965.96998 888.74824 953.71406 885.25972 941.08008 883.67383 C 986.38167 857.06887 1029.5723 850.13633 1060.6504 850.37891 z M 425.9707 863.70703 C 430.44181 872.32054 435.38753 880.80231 440.67188 889.0918 C 427.97096 883.09403 416.51603 874.77902 406.87695 864.58008 L 425.9707 863.70703 z M 726.0293 863.70703 L 745.12305 864.58008 C 735.48397 874.77902 724.02904 883.09403 711.32812 889.0918 C 716.61243 880.80231 721.55819 872.32054 726.0293 863.70703 z M 393.19727 865.19336 C 406.21823 881.13703 423.00496 893.56829 442.00586 901.35352 C 437.24936 903.08344 432.56707 904.99171 427.95703 907.04297 C 422.38128 906.31269 416.79626 905.65166 411.25781 905.12109 C 395.36962 894.94604 381.63246 881.70252 370.85156 866.20898 L 393.19727 865.19336 z M 758.80273 865.19336 L 781.14844 866.20898 C 770.36756 881.70252 756.6303 894.94604 740.74219 905.12109 C 735.20367 905.65166 729.61864 906.31269 724.04297 907.04297 C 719.43285 904.99171 714.75068 903.08344 709.99414 901.35352 C 728.99504 893.56829 745.78177 881.13703 758.80273 865.19336 z M 358.40039 866.77344 C 367.19591 880.65175 378.12814 893.00639 390.76367 903.39453 C 383.8045 902.9654 376.86339 902.71213 370.00391 902.68945 C 355.00938 893.66719 341.85175 881.87838 331.22656 868.00195 L 358.40039 866.77344 z M 793.59961 866.77344 L 820.77344 868.00195 C 810.14824 881.87838 796.99073 893.66719 781.99609 902.68945 C 775.13663 902.71213 768.19741 902.9666 761.23828 903.39648 C 773.8737 893.00796 784.80401 880.65175 793.59961 866.77344 z M 318.43164 868.58008 C 327.55634 881.78114 338.72246 893.4169 351.49219 903.03516 C 342.26553 903.45113 333.14361 904.31364 324.17188 905.68164 L 291.25977 869.80469 L 318.43164 868.58008 z M 833.56836 868.58008 L 860.74023 869.80469 L 827.82812 905.68164 C 818.85638 904.31364 809.73458 903.45113 800.50781 903.03516 C 813.27755 893.4169 824.44356 881.78114 833.56836 868.58008 z M 277.33789 870.43555 L 311.72266 907.91992 C 309.99341 908.28011 308.27002 908.66253 306.55469 909.06641 C 294.91162 901.28848 283.37475 895.37336 271.99414 891.14062 C 265.08675 884.76051 258.30354 878.24886 251.6543 871.60547 L 277.33789 870.43555 z M 874.66211 870.43555 L 900.3457 871.60547 C 893.69657 878.24886 886.91317 884.76051 880.00586 891.14062 C 868.62517 895.37336 857.08837 901.28848 845.44531 909.06641 C 843.72997 908.66253 842.00659 908.28011 840.27734 907.91992 L 874.66211 870.43555 z M 237.24609 872.25195 C 241.46088 876.56727 245.72925 880.83162 250.05664 885.00195 C 243.10567 883.62715 236.22326 882.902 229.43164 882.74023 C 224.6111 879.42173 219.60794 876.25944 214.45312 873.28125 L 237.24609 872.25195 z M 914.75391 872.25195 L 937.54688 873.28125 C 932.39217 876.25944 927.38888 879.42173 922.56836 882.74023 C 915.77674 882.902 908.8944 883.62715 901.94336 885.00195 C 906.27084 880.83162 910.5392 876.56727 914.75391 872.25195 z M 227.04883 893.42383 C 256.32644 893.64012 279.29712 905.19377 292.50977 912.91211 C 280.87927 916.57307 269.63046 921.34117 258.875 927.41211 C 233.96031 920.76161 207.96604 919.09553 182.37695 922.52148 C 178.84684 922.99411 180.26481 933.58587 183.79492 933.11328 C 204.60801 930.32667 225.70357 931.10189 246.19141 935.37695 C 235.13374 943.05937 224.6996 952.33764 215.03711 963.47266 C 213.13208 963.2799 209.35498 962.65998 203.7793 961.43945 C 168.86237 953.79604 146.57839 939.40635 136.86914 929.94336 C 153.91624 915.38927 174.17211 903.44727 195.79688 897.54883 C 206.82954 894.53947 217.28963 893.35173 227.04883 893.42383 z M 924.95117 893.42383 C 934.71038 893.35173 945.17046 894.53947 956.20312 897.54883 C 977.82788 903.44727 998.08319 915.38927 1015.1309 929.94336 C 1005.4216 939.40635 983.13569 953.79604 948.21875 961.43945 C 942.64308 962.65998 938.86792 963.2799 936.96289 963.47266 C 927.30038 952.33764 916.86624 943.05937 905.80859 935.37695 C 926.29643 931.10189 947.39201 930.32667 968.20508 933.11328 C 971.73519 933.58587 973.15316 922.99411 969.62305 922.52148 C 944.03406 919.09553 918.03968 920.76161 893.125 927.41211 C 882.36956 921.34117 871.12075 916.57307 859.49023 912.91211 C 872.70289 905.19377 895.67356 893.64012 924.95117 893.42383 z M 453.97461 908.4668 C 460.11649 916.88339 466.54618 925.0121 473.14648 932.73828 C 440.40039 933.66438 408.15741 941.80839 378.76172 956.64844 C 375.58231 958.25357 380.39885 967.79263 383.57812 966.1875 C 414.2417 950.70731 448.15766 942.87807 482.4043 943.33789 C 493.43164 955.61315 504.67992 966.7341 515.43555 976.33398 C 488.1974 984.47592 428.80502 998.73388 360.61133 967.63672 C 386.31062 940.41766 418.41334 920.07683 453.97461 908.4668 z M 698.02539 908.4668 C 733.58666 920.07683 765.6894 940.41766 791.38867 967.63672 C 723.195 998.73388 663.80271 984.47592 636.56445 976.33398 C 647.32012 966.7341 658.56829 955.61315 669.5957 943.33789 C 703.84234 942.87807 737.75834 950.70731 768.42188 966.1875 C 771.60115 967.79263 776.4177 958.25357 773.23828 956.64844 C 743.84263 941.80839 711.59953 933.66438 678.85352 932.73828 C 685.45382 925.0121 691.88351 916.88339 698.02539 908.4668 z M 368.66992 913.49023 C 382.65791 913.55493 396.64521 914.45024 410.3418 915.80078 C 398.23034 922.46643 386.72728 930.19199 375.96289 938.88086 C 338.41432 936.6952 300.83599 942.68757 265.81836 956.44531 C 262.50348 957.74766 266.41158 967.69297 269.72656 966.39062 C 299.79318 954.57815 331.84184 948.73079 364.0918 949.15039 C 356.7908 955.91869 349.89396 963.16344 343.45898 970.85742 C 347.52314 973.13504 351.66899 975.26478 355.88867 977.24219 C 354.3904 978.20631 352.83771 979.08359 351.24805 979.86523 C 341.46536 984.67502 321.13241 989.99013 292.42773 988.57617 C 257.44053 986.85278 233.58192 978.24277 221.89258 971.92578 C 230.48995 961.97875 247.61097 942.85171 279.44727 929.14453 C 307.12252 917.22888 337.89635 913.34789 368.66992 913.49023 z M 783.33008 913.49023 C 814.10367 913.34789 844.87756 917.22888 872.55273 929.14453 C 904.38906 942.85171 921.51005 961.97875 930.10742 971.92578 C 918.41806 978.24277 894.55947 986.85278 859.57227 988.57617 C 830.86759 989.99013 810.53462 984.67502 800.75195 979.86523 C 799.16228 979.08359 797.60957 978.20631 796.11133 977.24219 C 800.3311 975.26478 804.47685 973.13504 808.54102 970.85742 C 802.10614 963.16344 795.20919 955.91869 787.9082 949.15039 C 820.15816 948.73079 852.20673 954.57815 882.27344 966.39062 C 885.58831 967.69297 889.49663 957.74766 886.18164 956.44531 C 851.16402 942.68757 813.58558 936.6952 776.03711 938.88086 C 765.27271 930.19199 753.76966 922.46643 741.6582 915.80078 C 755.3548 914.45024 769.34208 913.55493 783.33008 913.49023 z "
       style="fill:#000000;stroke:#000000;stroke-width:0;stroke-linecap:round;stroke-linejoin:round;stroke-miterlimit:4;stroke-dasharray:none;stroke-opacity:1" />
  </g>
</svg>
