<?xml version="1.0" encoding="UTF-8" standalone="no"?>
<svg
   xmlns:dc="http://purl.org/dc/elements/1.1/"
   xmlns:cc="http://creativecommons.org/ns#"
   xmlns:rdf="http://www.w3.org/1999/02/22-rdf-syntax-ns#"
   xmlns:svg="http://www.w3.org/2000/svg"
   xmlns="http://www.w3.org/2000/svg"
   id="svg8"
   version="1.1"
   viewBox="0 0 304.8 304.80001"
   height="304.79999mm"
   width="304.79999mm">
  <defs
     id="defs2" />
  <metadata
     id="metadata5">
    <rdf:RDF>
      <cc:Work
         rdf:about="">
        <dc:format>image/svg+xml</dc:format>
        <dc:type
           rdf:resource="http://purl.org/dc/dcmitype/StillImage" />
        <dc:title></dc:title>
      </cc:Work>
    </rdf:RDF>
  </metadata>
  <g
     transform="translate(0,7.8000168)"
     id="layer1">
    <path
       id="path9057"
       transform="matrix(0.26458333,0,0,0.26458333,0,-7.8000168)"
       d="M 572.29883 255.69922 C 494.33987 255.75097 401.68164 302.63736 401.68164 371.24805 L 401.68164 524.47266 L 290.97266 498.12891 A 4.9318077 4.9318077 0 0 0 285.42383 505.24609 L 304.35742 542.72266 L 178.45703 532.97656 C 179.05012 519.40008 178.49976 505.92747 176.57227 493.30664 C 221.37489 473.43041 228.38097 411.47395 226.51953 369.33984 C 203.51304 370.64189 175.79255 382.44289 153.12695 397.67578 C 151.38254 392.41153 149.1793 387.56294 146.45703 383.27539 C 122.12026 392.91216 102.42192 412.43342 88.556641 437.63867 C 86.234975 434.28993 83.813807 431.0495 81.302734 427.92383 C 62.077297 447.14926 50.616797 481.68851 49.716797 515.43164 C 46.516539 513.4958 43.156686 511.81618 39.638672 510.4043 C 28.272078 536.92641 29.772323 572.24119 33.783203 603.07227 C 31.256387 601.96759 28.673882 600.95181 26.044922 600.00391 C 19.108442 644.17793 29.965304 691.78465 56.210938 725.19727 C 52.641658 725.97793 49.159543 726.90074 45.773438 727.95508 C 59.600122 761.6199 91.14825 793.69753 126.68359 806.49414 C 124.94916 808.01302 123.23576 809.5671 121.53906 811.15234 C 141.17202 835.4247 177.98623 849.47239 207.25586 854.94727 C 206.99666 855.2689 206.74864 855.59819 206.5 855.92969 C 229.29126 878.72092 329.85471 895.64635 367.31641 864.08594 C 416.87316 883.6956 474.58597 884.04108 524.7832 866.32617 C 547.22694 885.05483 566.5347 896.30078 576 896.30078 C 585.46534 896.30078 604.77306 885.05483 627.2168 866.32617 C 677.41395 884.04108 735.12688 883.6956 784.68359 864.08594 C 822.14529 895.64635 922.70873 878.72092 945.5 855.92969 C 945.25244 855.5986 945.00139 855.26819 944.74219 854.94727 C 974.01179 849.47239 1010.828 835.4247 1030.4609 811.15234 C 1028.7646 809.5671 1027.0511 808.01302 1025.3164 806.49414 C 1060.8518 793.69753 1092.4 761.6199 1106.2266 727.95508 C 1102.8406 726.90074 1099.3581 725.97793 1095.7891 725.19727 C 1122.0347 691.78465 1132.8915 644.17793 1125.9551 600.00391 C 1123.3256 600.95143 1120.7435 601.96759 1118.2168 603.07227 C 1122.2277 572.24119 1123.7277 536.92641 1112.3613 510.4043 C 1108.8429 511.81618 1105.4837 513.4958 1102.2832 515.43164 C 1101.3808 481.68851 1089.9207 447.14926 1070.6953 427.92383 C 1068.184 431.0495 1065.7646 434.28993 1063.4434 437.63867 C 1049.5782 412.43342 1029.8797 392.91216 1005.543 383.27539 C 1002.8207 387.56294 1000.6175 392.41153 998.87305 397.67578 C 976.20745 382.44289 948.48698 370.64189 925.48047 369.33984 C 923.61905 411.47395 930.62514 473.43041 975.42773 493.30664 C 973.50018 505.92747 972.94989 519.40008 973.54297 532.97656 L 847.64258 542.72266 L 866.57617 505.24609 A 4.9318077 4.9318077 0 0 0 861.02734 498.12891 L 750.31836 524.47266 L 750.31836 371.24805 C 750.31836 301.54831 654.69487 254.26813 576 255.73242 C 574.77039 255.70954 573.53627 255.6984 572.29883 255.69922 z M 576 266.41797 C 646.66341 266.46291 689.02017 293.77867 709.51367 312.35938 C 738.21899 338.38552 739.63281 361.89845 739.63281 371.36328 L 739.63281 527.01562 L 727.21289 529.9707 L 727.21289 390.13672 C 727.21289 314.45368 664.92873 280.93945 576 280.93945 C 487.07138 280.93945 424.78711 314.45368 424.78711 390.13672 L 424.78711 529.9707 L 412.36719 527.01562 L 412.36719 371.36328 C 412.36719 361.89845 413.78108 338.38552 442.48633 312.35938 C 462.97983 293.77867 505.33663 266.4629 576 266.41797 z M 576 291.62695 C 621.30134 291.62695 649.39188 301.55421 651.60547 302.44922 C 705.91535 324.4073 711.82089 359.00857 712.75977 361.94531 C 715.3659 370.09687 716.39506 379.05251 716.52734 387.60938 L 716.52734 532.51367 L 672.60938 542.96484 L 672.60938 492.86914 C 671.81651 482.5355 663.47655 464.77332 639.32812 452.82812 L 672.60938 419.54883 L 672.60938 330.08008 A 5.0404797 5.0404797 0 0 0 667.56836 325.03906 L 576 325.03906 L 484.43164 325.03906 A 5.0404797 5.0404797 0 0 0 479.39062 330.08008 L 479.39062 419.54883 L 512.67188 452.82812 C 488.52345 464.77332 480.18361 482.5355 479.39062 492.86914 L 479.39062 542.96484 L 435.47266 532.51367 L 435.47266 387.60938 C 435.60494 379.05251 436.63425 370.09687 439.24023 361.94531 C 440.17914 359.00857 446.08465 324.4073 500.39453 302.44922 C 502.60809 301.55421 530.69866 291.62695 576 291.62695 z M 490.07812 335.72461 L 548.51367 335.72461 L 548.51367 442.30469 C 538.92739 443.68251 530.57064 445.77104 523.31055 448.35352 L 490.07812 415.12305 L 490.07812 335.72461 z M 559.19922 335.72461 L 576 335.72461 L 592.80078 335.72461 L 592.80273 451.79688 C 617.06738 453.82774 642.57155 461.0711 655.99609 479.62109 C 658.96847 483.72834 661.56199 488.57171 661.92188 493.62891 L 661.92188 673.48828 C 661.61233 691.54146 650.63601 725.95775 620.59961 762.88672 C 608.07777 778.28206 593.14292 792.32538 576 802.32227 C 558.85708 792.32538 543.92227 778.28206 531.40039 762.88672 C 501.36403 725.95775 490.38744 691.54146 490.07812 673.48828 L 490.07812 493.62891 C 490.43794 488.57171 493.03157 483.72834 496.00391 479.62109 C 509.42845 461.0711 534.93259 453.82774 559.19727 451.79688 L 559.19922 335.72461 z M 603.48633 335.72461 L 661.92188 335.72461 L 661.92188 415.12305 L 628.68945 448.35352 C 621.42925 445.77104 613.07456 443.68251 603.48828 442.30469 L 603.48633 335.72461 z M 216.0625 381.4707 C 215.94375 393.85268 215.22466 406.30318 213.08789 418.5 C 210.6948 432.15963 203.40544 468.2568 174.55273 482.57422 C 172.30441 472.60685 169.072 463.36713 164.73242 455.27539 C 181.62746 437.5784 197.68763 419.09893 212.85938 399.89844 C 215.06754 397.10397 206.6827 390.47888 204.47461 393.27344 C 190.10312 411.46112 174.92398 428.99403 158.96484 445.81641 C 159.22166 433.01413 158.45226 420.26116 156.06445 408.76172 C 174.17955 396.09345 194.63444 386.08187 216.0625 381.4707 z M 935.9375 381.4707 C 957.36557 386.08187 977.82065 396.09345 995.93555 408.76172 C 993.5442 420.26116 992.77588 433.01413 993.03516 445.81641 C 977.0761 428.99403 961.89678 411.46112 947.52539 393.27344 C 945.3172 390.47888 936.93247 397.10397 939.14062 399.89844 C 954.31237 419.09893 970.37256 437.5784 987.26758 455.27539 C 982.92792 463.36713 979.69559 472.60685 977.44727 482.57422 C 948.59458 468.2568 941.30519 432.15963 938.91211 418.5 C 936.77535 406.30318 936.05618 393.85268 935.9375 381.4707 z M 141.62109 397.33398 C 146.66023 409.76386 150.43367 433.82516 147.06445 466.31836 C 136.61236 476.12593 127.5852 487.63651 119.97461 500.44336 C 118.59067 496.617 117.14147 492.80874 115.61719 489.03125 L 134.2832 424.85742 C 135.27824 421.43763 125.01858 418.4513 124.02344 421.87109 L 108.96875 473.61133 C 104.84008 464.72362 100.29175 456.11639 95.285156 447.97461 C 105.77767 427.22402 121.41693 407.84802 141.62109 397.33398 z M 1010.3789 397.33398 C 1030.5832 407.84802 1046.2223 427.22402 1056.7148 447.97461 C 1051.7078 456.11639 1047.1602 464.72362 1043.0312 473.61133 L 1027.9766 421.87109 C 1026.9812 418.4513 1016.7213 421.43763 1017.7168 424.85742 L 1036.3828 489.03125 C 1034.8593 492.80874 1033.4097 496.617 1032.0254 500.44336 C 1024.4148 487.63651 1015.3878 476.12593 1004.9355 466.31836 C 1001.5669 433.82516 1005.3399 409.76386 1010.3789 397.33398 z M 80.822266 445.30273 C 89.521978 457.8917 102.10519 480.23579 113.12109 513.00781 C 104.22928 530.86687 97.780868 550.77975 93.728516 571.86328 C 90.916003 565.36627 87.837438 559.10916 84.4375 553.2168 L 84.419922 484.01172 C 84.419922 480.45012 73.734375 480.45012 73.734375 484.01172 L 73.751953 537.22266 C 69.681844 531.9947 65.237058 527.26439 60.394531 523.14062 C 60.360478 522.26207 60.344001 521.3584 60.339844 520.45312 C 60.214658 494.48995 66.334906 466.84857 80.822266 445.30273 z M 1071.1758 445.30273 C 1085.6632 466.84857 1091.7834 494.48995 1091.6582 520.45312 C 1091.6544 521.3584 1091.6364 522.26207 1091.6035 523.14062 C 1086.762 527.26382 1082.3179 531.99361 1078.248 537.2207 L 1078.2656 484.01172 C 1078.2656 480.45012 1067.5801 480.45012 1067.5801 484.01172 L 1067.5605 553.2168 C 1064.1602 559.10916 1061.0843 565.36627 1058.2715 571.86328 C 1054.2193 550.77975 1047.7688 530.86687 1038.877 513.00781 C 1049.8929 480.23579 1062.4761 457.8917 1071.1758 445.30273 z M 159.48633 469.53516 C 163.85596 480.46521 169.05569 501.86806 167.79492 532.15039 L 142.0957 530.1543 C 144.70498 523.47856 147.63641 516.92219 150.88477 510.50391 C 152.49315 507.32612 142.9321 502.48604 141.35156 505.67773 C 137.5323 513.39001 134.12328 521.27624 131.14258 529.30664 L 117.98828 528.29102 C 134.77407 488.97728 157.06847 471.57765 159.48633 469.53516 z M 992.51172 469.53516 C 994.92994 471.57765 1017.224 488.97728 1034.0098 528.29102 L 1020.8574 529.30664 C 1017.8766 521.27624 1014.4672 513.39001 1010.6484 505.67773 C 1009.0673 502.48604 999.50732 507.32612 1001.1152 510.50391 C 1004.3639 516.92219 1007.294 523.47856 1009.9023 530.1543 L 984.20312 532.15039 C 982.94238 501.86806 988.14179 480.46521 992.51172 469.53516 z M 300.49414 511.37891 L 479.39062 553.94922 L 479.39062 600.91211 L 373.43945 577.80273 A 5.0320317 5.0320317 0 0 0 367.76562 584.7793 L 381.04297 614.43945 L 163.65625 542.54688 L 313.53516 554.15234 A 5.0297277 5.0297277 0 0 0 318.42188 546.86523 L 300.49414 511.37891 z M 851.50586 511.37891 L 833.57812 546.86523 A 5.0297277 5.0297277 0 0 0 838.46484 554.15234 L 988.34375 542.54688 L 770.95703 614.43945 L 784.23438 584.7793 A 5.0320317 5.0320317 0 0 0 778.56055 577.80273 L 672.60938 600.91211 L 672.60938 553.94922 L 851.50586 511.37891 z M 576 518.22266 L 555.86719 576.14258 L 494.56055 577.39062 L 543.42383 614.4375 L 525.66797 673.12891 L 576 638.10352 L 626.33203 673.12891 L 608.57617 614.4375 L 657.43945 577.39062 L 596.13281 576.14258 L 576 518.22266 z M 45.71875 525.54883 C 58.454684 533.56868 68.253344 546.24137 75.669922 559.33789 C 83.883202 573.84119 97.102025 610.91461 106.19727 653.68945 C 105.62501 657.0555 105.13487 660.46212 104.70508 663.85742 C 98.181105 654.12083 90.815416 644.95806 82.595703 636.625 C 78.016794 611.66594 72.043964 586.98917 64.714844 562.70117 C 63.685917 559.29136 53.452354 562.45919 54.505859 565.86133 C 60.508067 585.24479 65.548315 604.91257 69.599609 624.80078 C 62.073308 618.6804 53.958182 613.21375 45.234375 608.56055 C 44.813608 605.38295 44.32729 601.45993 43.763672 596.82227 C 39.606199 562.61278 42.202943 538.13866 45.71875 525.54883 z M 1106.2812 525.54883 C 1109.7968 538.13866 1112.3941 562.61278 1108.2363 596.82227 C 1107.6699 601.45993 1107.1861 605.38295 1106.7656 608.56055 C 1098.0421 613.21375 1089.9267 618.6804 1082.4004 624.80078 C 1086.4516 604.91257 1091.4918 585.24479 1097.4941 565.86133 C 1098.5473 562.45919 1088.3143 559.29136 1087.2852 562.70117 C 1079.9565 586.98917 1073.9851 611.66594 1069.4062 636.625 C 1061.187 644.95806 1053.8207 654.12083 1047.2969 663.85742 C 1046.8649 660.46212 1046.3739 657.0555 1045.8027 653.68945 C 1054.8978 610.91461 1068.1187 573.84119 1076.332 559.33789 C 1083.749 546.24137 1093.5456 533.56868 1106.2812 525.54883 z M 114.31445 537.48438 L 126.9043 541.64844 C 119.36186 565.59413 115.45951 590.60902 115.37109 615.84375 C 114.04101 619.74921 112.8247 623.77856 111.71484 627.88672 C 108.8118 615.83724 105.43853 603.57673 101.38281 591.71094 C 103.99392 570.61705 108.68597 552.63537 114.31445 537.48438 z M 1037.6855 537.48438 C 1043.3142 552.63537 1048.006 570.61705 1050.6172 591.71094 C 1046.5611 603.57673 1043.1882 615.83724 1040.2852 627.88672 C 1039.1754 623.77856 1037.9585 619.74921 1036.6289 615.84375 C 1036.5404 590.60902 1032.6384 565.59413 1025.0957 541.64844 L 1037.6855 537.48438 z M 572.39648 544.70117 L 572.39648 592.75977 L 561.0957 577.20703 L 572.39648 544.70117 z M 579.60547 544.70117 L 590.9043 577.20703 L 579.60547 592.75977 L 579.60547 544.70117 z M 136.89648 544.95312 L 165.87891 554.53711 C 164.2567 567.11198 161.88181 578.09541 159.24805 587.46875 C 154.22744 581.37823 148.59752 575.78392 142.3125 570.8457 C 136.9244 575.37959 132.13192 581.2832 127.91406 588.18359 C 129.49077 573.49896 132.49911 559.02 136.89648 544.95312 z M 1015.1035 544.95312 C 1019.5013 559.02 1022.5086 573.49896 1024.0859 588.18359 C 1019.8677 581.2832 1015.0759 575.37959 1009.6875 570.8457 C 1003.4024 575.78392 997.77256 581.37823 992.75195 587.46875 C 990.11774 578.09541 987.74349 567.11198 986.12109 554.53711 L 1015.1035 544.95312 z M 176.12305 557.92383 L 389.69141 628.55469 A 5.1433916 5.1433916 0 0 0 395.98242 621.66016 L 382.0918 590.62891 L 401.68164 594.90039 L 401.68164 631.75977 L 321.42969 658.66406 A 5.2679996 5.2679996 0 0 0 318.61523 666.19727 L 337.96484 697.22656 L 310.88281 707.13672 C 298.12499 699.19895 281.48526 692.06722 265.34766 693.99414 C 263.4721 702.95506 262.71788 714.1137 262.65625 724.79688 L 258.58008 726.28906 C 244.85563 707.87725 230.26549 692.24049 194.52344 683.36914 C 192.1461 655.04434 183.93338 623.50179 167.06445 598.01953 C 171.02042 585.60461 174.12241 571.95634 176.12305 557.92383 z M 975.87695 557.92383 C 977.87768 571.95634 980.97955 585.60461 984.93555 598.01953 C 968.06661 623.50179 959.85392 655.04434 957.47656 683.36914 C 921.73452 692.24049 907.14437 707.87725 893.41992 726.28906 L 889.34375 724.79688 C 889.28222 714.1137 888.5279 702.95506 886.65234 693.99414 C 870.51474 692.06722 853.87498 699.19895 841.11719 707.13672 L 814.03516 697.22656 L 833.38477 666.19727 A 5.2679996 5.2679996 0 0 0 830.57031 658.66406 L 750.31836 631.75977 L 750.31836 594.90039 L 769.9082 590.62891 L 756.01758 621.66016 A 5.1433916 5.1433916 0 0 0 762.31055 628.55469 L 975.87695 557.92383 z M 555.26367 581.44336 L 566.5625 596.99609 L 520.85742 582.14453 L 555.26367 581.44336 z M 596.73633 581.44336 L 631.14258 582.14453 L 585.4375 596.99609 L 596.73633 581.44336 z M 142.875 585.49414 C 145.63289 588.24972 180.76443 620.03164 184.24414 690.42773 C 179.58497 704.78291 178.31319 721.41569 178.51758 738.15234 C 173.34452 736.16821 168.10835 734.3505 162.83008 732.71094 L 151.81055 622.33398 C 151.4569 618.79007 140.82407 619.85047 141.17773 623.39453 L 151.77344 729.53516 C 145.69222 727.92655 139.58121 726.55329 133.48242 725.41992 C 128.66591 709.56034 122.18177 693.82645 113.95898 679.0293 C 114.78161 668.49598 116.08806 657.9749 118.10156 647.59961 C 122.34774 625.71977 129.04812 602.97487 142.875 585.49414 z M 1009.125 585.49414 C 1022.9519 602.97487 1029.6523 625.71977 1033.8984 647.59961 C 1035.9119 657.9749 1037.2185 668.49598 1038.041 679.0293 C 1029.8182 693.82645 1023.3341 709.56034 1018.5176 725.41992 C 1012.4188 726.55329 1006.3079 727.92655 1000.2266 729.53516 L 1010.8223 623.39453 C 1011.176 619.85047 1000.5447 618.79007 1000.1895 622.33398 L 989.17188 732.71094 C 983.89354 734.3505 978.65546 736.16821 973.48242 738.15234 C 973.68689 721.41569 972.41515 704.78291 967.75586 690.42773 C 971.23559 620.03164 1006.3671 588.24972 1009.125 585.49414 z M 518.62891 589.00195 L 564.33594 603.85156 L 546.05273 609.79297 L 518.62891 589.00195 z M 633.37109 589.00195 L 605.94727 609.79297 L 587.66406 603.85156 L 633.37109 589.00195 z M 412.36719 597.23047 L 424.78711 599.93945 L 424.78711 624.01367 L 412.36719 628.17578 L 412.36719 597.23047 z M 739.63281 597.23047 L 739.63281 628.17578 L 727.21289 624.01367 L 727.21289 599.93945 L 739.63281 597.23047 z M 435.47266 602.26953 L 468.29102 609.42773 L 435.47266 620.42969 L 435.47266 602.26953 z M 716.52734 602.26953 L 716.52734 620.42969 L 683.70898 609.42773 L 716.52734 602.26953 z M 566.5625 610.70898 L 538.31641 649.58789 L 548.28125 616.64844 L 566.5625 610.70898 z M 585.4375 610.70898 L 603.71875 616.64844 L 613.68555 649.58789 L 585.4375 610.70898 z M 572.39648 614.94531 L 572.39648 634.16992 L 544.14844 653.82617 L 572.39648 614.94531 z M 579.60547 614.94531 L 607.85156 653.82617 L 579.60547 634.16992 L 579.60547 614.94531 z M 35.0625 615.39062 C 39.328261 617.46411 94.941655 641.06274 121.67773 723.50977 C 115.80685 722.70979 109.96994 722.14088 104.20898 721.82227 L 58.332031 648.875 C 56.435933 645.86015 47.389062 651.54753 49.285156 654.5625 L 91.376953 721.47656 C 83.46204 721.50151 75.731975 722.01979 68.285156 723.04102 C 64.806022 719.03725 61.59831 714.7827 58.681641 710.36133 C 48.802088 695.38484 32.504868 662.62187 35.0625 615.39062 z M 1116.9375 615.39062 C 1119.495 662.62187 1103.1979 695.38484 1093.3184 710.36133 C 1090.4019 714.7827 1087.1941 719.03725 1083.7148 723.04102 C 1076.2682 722.01979 1068.5379 721.50151 1060.623 721.47656 L 1102.7148 654.5625 C 1104.6109 651.54753 1095.5659 645.86015 1093.6699 648.875 L 1047.791 721.82227 C 1042.0301 722.14088 1036.1932 722.70979 1030.3223 723.50977 C 1057.0584 641.06274 1112.6717 617.46411 1116.9375 615.39062 z M 479.39062 616.97656 L 479.39062 665.85742 L 395.7207 691.32422 A 5.0520957 5.0520957 0 0 0 393.11328 699.11523 L 419.31836 735.21484 L 243.56836 743.17578 L 348.16602 704.87109 A 5.0462397 5.0462397 0 0 0 350.70898 697.4668 L 331.44531 666.57617 L 479.39062 616.97656 z M 672.60938 616.97656 L 820.55469 666.57617 L 801.29102 697.4668 A 5.0462397 5.0462397 0 0 0 803.83398 704.87109 L 908.43164 743.17578 L 732.68164 735.21484 L 758.88672 699.11523 A 5.0520957 5.0520957 0 0 0 756.2793 691.32422 L 672.60938 665.85742 L 672.60938 616.97656 z M 479.49805 676.99414 C 481.85757 717.99325 526.56971 790.34358 576 814.38867 C 625.43032 790.34358 670.14247 717.99325 672.50195 676.99414 L 712.60938 689.20117 C 708.91311 703.50449 702.99572 717.4248 696.57227 730.58398 C 684.87928 754.53859 670.43812 777.32456 653.80469 798.1543 C 638.41109 817.43147 619.88298 834.31828 600.16602 849.14453 C 589.13293 857.44082 579.96079 864.36719 576 864.36719 C 572.03924 864.36719 562.86707 857.44082 551.83398 849.14453 C 532.11702 834.31828 513.58891 817.43147 498.19531 798.1543 C 481.56188 777.32456 467.12072 754.53859 455.42773 730.58398 C 449.00428 717.4248 443.08693 703.50449 439.39062 689.20117 L 479.49805 676.99414 z M 429.25977 692.28516 C 439.54722 730.95724 465.84949 774.51968 489.84375 804.82227 C 516.91711 839.01335 565.67014 875.3125 576 875.3125 C 586.3299 875.3125 635.08289 839.01335 662.15625 804.82227 C 686.15047 774.51968 712.45289 730.95724 722.74023 692.28516 L 734.55859 695.88281 C 727.65064 721.87538 714.47744 746.78174 699.83789 769.04297 C 678.5697 801.38423 652.36235 830.92318 622.88086 856.00586 C 603.26239 872.69708 587.70989 882.60247 578.28711 885.18555 C 577.54012 885.39006 576.76706 885.59766 576 885.59766 C 575.23325 885.59766 574.4598 885.39002 573.71289 885.18555 C 564.29011 882.60277 548.73761 872.69708 529.11914 856.00586 C 499.63773 830.92318 473.43042 801.38423 452.16211 769.04297 C 437.5226 746.78174 424.3494 721.87538 417.44141 695.88281 L 429.25977 692.28516 z M 194.2207 694.32617 C 198.95965 695.63359 203.67977 697.05857 208.25781 698.84961 C 229.9374 707.33102 241.56603 721.50082 248.07031 730.14648 L 233.98438 735.30859 C 224.81196 725.52725 215.89884 715.49504 207.25586 705.22852 C 204.96204 702.50385 196.78635 709.38667 199.08008 712.11133 C 206.66897 721.12584 214.4643 729.96088 222.45898 738.60742 L 193.32031 744.32617 C 192.00435 743.71771 190.67748 743.12665 189.33789 742.56641 C 188.98375 726.38523 189.57997 709.80946 194.2207 694.32617 z M 957.7793 694.32617 C 962.42003 709.80946 963.01625 726.38523 962.66211 742.56641 C 961.32253 743.12665 959.99568 743.71771 958.67969 744.32617 L 929.54102 738.60742 C 937.53562 729.96088 945.33101 721.12584 952.91992 712.11133 C 955.21372 709.38667 947.03786 702.50385 944.74414 705.22852 C 936.10108 715.49504 927.18793 725.52725 918.01562 735.30859 L 903.92969 730.14648 C 910.43407 721.50082 922.06263 707.33102 943.74219 698.84961 C 948.32033 697.05857 953.04037 695.63359 957.7793 694.32617 z M 274.50781 704.57812 C 282.56663 705.38808 290.43843 708.22021 297.71484 711.95703 L 273.39453 720.86523 C 273.50599 715.41943 273.84138 709.97688 274.50781 704.57812 z M 877.49414 704.57812 C 878.16047 709.97688 878.49401 715.41943 878.60547 720.86523 L 854.28516 711.95703 C 861.5615 708.22021 869.43524 705.38808 877.49414 704.57812 z M 91.349609 732.2832 C 122.4277 732.04061 165.61825 738.97328 210.91992 765.57812 C 198.28584 767.16401 186.03 770.65254 174.25195 775.74023 L 97.953125 741.80664 C 94.698918 740.35904 90.357215 750.12275 93.611328 751.57031 L 161.67773 781.84375 C 152.95844 786.55399 144.53902 792.13086 136.45898 798.42578 C 104.90868 789.49559 76.711377 763.83208 61.029297 735.11523 C 68.881275 733.57232 79.188622 732.37813 91.349609 732.2832 z M 1060.6504 732.2832 C 1072.8114 732.37813 1083.1188 733.57232 1090.9707 735.11523 C 1075.2886 763.83208 1047.0913 789.49559 1015.541 798.42578 C 1007.461 792.13086 999.04194 786.55399 990.32227 781.84375 L 1058.3887 751.57031 C 1061.6431 750.12275 1057.3013 740.35904 1054.0469 741.80664 L 977.74805 775.74023 C 965.96998 770.65254 953.71406 767.16401 941.08008 765.57812 C 986.38167 738.97328 1029.5723 732.04061 1060.6504 732.2832 z M 425.9707 745.61133 C 430.44181 754.22483 435.38753 762.70668 440.67188 770.99609 C 427.97096 764.99832 416.51603 756.68385 406.87695 746.48438 L 425.9707 745.61133 z M 726.0293 745.61133 L 745.12305 746.48438 C 735.48397 756.68427 724.02904 764.99832 711.32812 770.99609 C 716.61243 762.70668 721.55819 754.22483 726.0293 745.61133 z M 393.19727 747.09961 C 406.21823 763.0434 423.00496 775.47248 442.00586 783.25781 C 437.24936 784.98763 432.56707 786.89596 427.95703 788.94727 C 422.38128 788.21702 416.79821 787.55589 411.25977 787.02539 C 395.37158 776.85037 381.63246 763.60681 370.85156 748.11328 L 393.19727 747.09961 z M 758.80273 747.09961 L 781.14844 748.11328 C 770.36756 763.60681 756.6303 776.85037 740.74219 787.02539 C 735.20367 787.55589 729.61864 788.21702 724.04297 788.94727 C 719.43285 786.89596 714.75068 784.98763 709.99414 783.25781 C 728.99504 775.47248 745.78177 763.0434 758.80273 747.09961 z M 358.40039 748.67773 C 367.19591 762.55608 378.12814 774.91252 390.76367 785.30078 C 383.8045 784.87162 376.86339 784.61643 370.00391 784.59375 C 355.00938 775.57141 341.85175 763.78256 331.22656 749.90625 L 358.40039 748.67773 z M 793.59961 748.67773 L 820.77344 749.90625 C 810.14824 763.78256 796.99073 775.57141 781.99609 784.59375 C 775.13663 784.61643 768.19741 784.87097 761.23828 785.30078 C 773.8737 774.91226 784.80401 762.55608 793.59961 748.67773 z M 318.43164 750.48438 C 327.55635 763.68533 338.72246 775.32108 351.49219 784.93945 C 342.26553 785.35539 333.14372 786.21794 324.17188 787.58594 L 291.25977 751.70898 L 318.43164 750.48438 z M 833.56836 750.48438 L 860.74023 751.70898 L 827.82812 787.58594 C 818.85627 786.21794 809.73458 785.35539 800.50781 784.93945 C 813.27755 775.32108 824.44356 763.68533 833.56836 750.48438 z M 277.33789 752.33984 L 311.72266 789.82422 C 309.99341 790.18403 308.27001 790.56694 306.55469 790.9707 C 294.91161 783.19289 283.37475 777.27777 271.99414 773.04492 C 265.08675 766.66478 258.30355 760.15308 251.6543 753.50977 L 277.33789 752.33984 z M 874.66211 752.33984 L 900.3457 753.50977 C 893.69657 760.15308 886.91317 766.66478 880.00586 773.04492 C 868.62517 777.27777 857.08837 783.19289 845.44531 790.9707 C 843.72997 790.56694 842.00659 790.18403 840.27734 789.82422 L 874.66211 752.33984 z M 237.24609 754.1582 C 241.46088 758.4734 245.72925 762.73581 250.05664 766.90625 C 243.10566 765.53133 236.22326 764.8063 229.43164 764.64453 C 224.6111 761.32592 219.60794 758.16569 214.45312 755.1875 L 237.24609 754.1582 z M 914.75391 754.1582 L 937.54688 755.1875 C 932.39217 758.16569 927.38888 761.32592 922.56836 764.64453 C 915.77674 764.8063 908.8944 765.53133 901.94336 766.90625 C 906.27084 762.73581 910.5392 758.4734 914.75391 754.1582 z M 227.04883 775.32812 C 256.32644 775.54438 279.29712 787.09996 292.50977 794.81836 C 280.87927 798.47932 269.63045 803.24554 258.875 809.31641 C 233.96031 802.66599 207.96604 800.99983 182.37695 804.42578 C 178.84684 804.89841 180.26481 815.49017 183.79492 815.01758 C 204.60801 812.23108 225.70357 813.00626 246.19141 817.28125 C 235.13374 824.96363 224.69961 834.24182 215.03711 845.37695 C 213.13209 845.1842 209.35693 844.56431 203.78125 843.34375 C 168.86432 835.70026 146.57839 821.3126 136.86914 811.84961 C 153.91625 797.29552 174.17211 785.35157 195.79688 779.45312 C 206.82965 776.44379 217.28963 775.25607 227.04883 775.32812 z M 924.95117 775.32812 C 934.71038 775.25607 945.17035 776.44379 956.20312 779.45312 C 977.82788 785.35157 998.08363 797.29552 1015.1309 811.84961 C 1005.4216 821.3126 983.13764 835.70026 948.2207 843.34375 C 942.64503 844.56431 938.86792 845.1842 936.96289 845.37695 C 927.30038 834.24182 916.86624 824.96363 905.80859 817.28125 C 926.29643 813.00626 947.39201 812.23108 968.20508 815.01758 C 971.73519 815.49017 973.15316 804.89841 969.62305 804.42578 C 944.03406 800.99983 918.03968 802.66599 893.125 809.31641 C 882.36956 803.24554 871.12075 798.47932 859.49023 794.81836 C 872.70289 787.09996 895.67356 775.54438 924.95117 775.32812 z M 453.97461 790.37305 C 460.11649 798.78968 466.54618 806.91639 473.14648 814.64258 C 440.40039 815.56879 408.15741 823.71268 378.76172 838.55273 C 375.58231 840.15786 380.39874 849.69692 383.57812 848.0918 C 414.2417 832.61149 448.15766 824.78237 482.4043 825.24219 C 493.43164 837.51753 504.67992 848.63828 515.43555 858.23828 C 505.88185 861.09398 488.19416 866.55747 461.95312 868.13281 C 412.24349 871.11717 377.79811 857.38031 360.61133 849.54297 C 386.31062 822.32398 418.41334 801.983 453.97461 790.37305 z M 698.02539 790.37305 C 733.58666 801.983 765.6894 822.32398 791.38867 849.54297 C 774.20199 857.38031 739.75651 871.11717 690.04688 868.13281 C 663.80588 866.55747 646.11819 861.09398 636.56445 858.23828 C 647.32012 848.63828 658.56829 837.51753 669.5957 825.24219 C 703.84234 824.78237 737.75834 832.61149 768.42188 848.0918 C 771.60126 849.69692 776.4177 840.15786 773.23828 838.55273 C 743.84263 823.71268 711.59953 815.56879 678.85352 814.64258 C 685.45382 806.91639 691.88351 798.78968 698.02539 790.37305 z M 368.66992 795.39453 C 382.65791 795.45923 396.64521 796.35652 410.3418 797.70703 C 398.23034 804.3728 386.72728 812.09832 375.96289 820.78711 C 338.41431 818.60148 300.83599 824.59194 265.81836 838.34961 C 262.50348 839.65203 266.41158 849.59723 269.72656 848.29492 C 299.79318 836.48231 331.84185 830.63704 364.0918 831.05664 C 356.79081 837.82502 349.89396 845.0677 343.45898 852.76172 C 347.52314 855.03941 351.66899 857.16919 355.88867 859.14648 C 354.3904 860.1106 352.83771 860.98796 351.24805 861.76953 C 341.46536 866.5794 321.13241 871.89439 292.42773 870.48047 C 257.44053 868.75708 233.58192 860.14913 221.89258 853.83203 C 230.48995 843.885 247.61098 824.756 279.44727 811.04883 C 307.12252 799.1332 337.89635 795.2522 368.66992 795.39453 z M 783.33008 795.39453 C 814.10367 795.2522 844.87756 799.1332 872.55273 811.04883 C 904.38906 824.756 921.51005 843.885 930.10742 853.83203 C 918.41806 860.14913 894.55947 868.75708 859.57227 870.48047 C 830.86759 871.89439 810.53462 866.5794 800.75195 861.76953 C 799.16228 860.98796 797.60957 860.1106 796.11133 859.14648 C 800.3311 857.16919 804.47685 855.03941 808.54102 852.76172 C 802.10614 845.0677 795.20919 837.82502 787.9082 831.05664 C 820.15816 830.63704 852.20673 836.48231 882.27344 848.29492 C 885.58831 849.59723 889.49663 839.65203 886.18164 838.34961 C 851.16402 824.59194 813.58558 818.60148 776.03711 820.78711 C 765.27271 812.09832 753.76966 804.3728 741.6582 797.70703 C 755.3548 796.35652 769.34208 795.45923 783.33008 795.39453 z "
       style="fill:#000000;stroke:#000000;stroke-width:0;stroke-linecap:round;stroke-linejoin:round;stroke-miterlimit:4;stroke-dasharray:none;stroke-opacity:1" />
  </g>
</svg>
